<svg width="26" height="22" viewBox="0 0 26 22" fill="none" xmlns="http://www.w3.org/2000/svg">
<path d="M0 2C0 0.895431 0.895431 0 2 0H24C25.1046 0 26 0.895431 26 2C26 3.10457 25.1046 4 24 4H2C0.89543 4 0 3.10457 0 2Z" fill="white"/>
<path d="M0 11C0 9.89543 0.895431 9 2 9H24C25.1046 9 26 9.89543 26 11C26 12.1046 25.1046 13 24 13H2C0.89543 13 0 12.1046 0 11Z" fill="white"/>
<path d="M0 20C0 18.8954 0.895431 18 2 18H24C25.1046 18 26 18.8954 26 20C26 21.1046 25.1046 22 24 22H2C0.89543 22 0 21.1046 0 20Z" fill="white"/>
</svg>
